<svg xmlns="http://www.w3.org/2000/svg" xmlns:xlink="http://www.w3.org/1999/xlink" width="287.469" height="54.407" viewBox="0 0 287.469 54.407">
  <defs>
    <clipPath id="clip-path">
      <rect id="Rectangle_27" data-name="Rectangle 27" width="287.469" height="54.407" fill="#fff"/>
    </clipPath>
  </defs>
  <g id="Group_25" data-name="Group 25" clip-path="url(#clip-path)">
    <path id="Path_24" data-name="Path 24" d="M1631.183,191.883H1623.7V177.44a22.168,22.168,0,0,0-.482-5.922,4.152,4.152,0,0,0-1.559-2.1,4.437,4.437,0,0,0-2.6-.742,5.989,5.989,0,0,0-3.493,1.07,5.306,5.306,0,0,0-2.12,2.812,24.546,24.546,0,0,0-.571,6.508v12.816h-7.489v-28.3h6.954v4.153a11.582,11.582,0,0,1,13.861-3.9,7.6,7.6,0,0,1,3.1,2.284,8.144,8.144,0,0,1,1.463,3.14,23.015,23.015,0,0,1,.414,5.037Z" transform="translate(-1430.101 -145.149)" fill="#fff"/>
    <path id="Path_25" data-name="Path 25" d="M0,15.651H5.691V12.74a19.363,19.363,0,0,1,1.039-7.3,8.256,8.256,0,0,1,3.835-3.927A14.7,14.7,0,0,1,17.625,0,28.421,28.421,0,0,1,26.2,1.317L24.813,8.467a20.329,20.329,0,0,0-4.707-.586,4.2,4.2,0,0,0-3.192,1.042q-.972,1.041-.969,4v2.733H23.61V23.72H15.944V54.407H5.691V23.72H0Z" transform="translate(0 0)" fill="#fff"/>
    <path id="Path_26" data-name="Path 26" d="M2210.111,110.017a19.583,19.583,0,0,0,9.921-1.578,17.455,17.455,0,0,0,3.989-2.435,12.644,12.644,0,0,1-2.3-.373,9.546,9.546,0,0,1-5.5-4.056,9.29,9.29,0,0,1-1.019-2.147c.106.007.186.005.264.018a9.37,9.37,0,0,0,3.755-.154.622.622,0,0,0,.189-.083,9.59,9.59,0,0,1-6.464-4.893,9.306,9.306,0,0,1-1.109-4.522,10.576,10.576,0,0,0,2.084.836,8.313,8.313,0,0,0,2.17.306,9.561,9.561,0,0,1-4.169-8.2,9.152,9.152,0,0,1,1.256-4.467,27.174,27.174,0,0,0,14.095,9.074,25.761,25.761,0,0,0,5.563.856c-.027-.167-.047-.3-.072-.436a9.466,9.466,0,0,1,7.173-11,9.289,9.289,0,0,1,8.958,2.578.373.373,0,0,0,.383.127,19.315,19.315,0,0,0,5.514-2.08c.073-.041.147-.079.274-.148-.039.124-.06.2-.087.274a9.465,9.465,0,0,1-3.8,4.755.751.751,0,0,0-.19.162,18.175,18.175,0,0,0,5.282-1.394.444.444,0,0,1-.119.229,18.984,18.984,0,0,1-4.3,4.425.468.468,0,0,0-.213.464,21.776,21.776,0,0,1-.053,2.83,26.147,26.147,0,0,1-.8,4.823,27.887,27.887,0,0,1-6.408,11.9,25.385,25.385,0,0,1-13.117,7.73,29.43,29.43,0,0,1-3.658.613,28.673,28.673,0,0,1-4.43.109,26.357,26.357,0,0,1-9.561-2.273,26.992,26.992,0,0,1-3.281-1.734c-.071-.044-.14-.091-.21-.136m25.623.328.056,0-.007-.112h-.039c0,.037-.007.073-.01.11" transform="translate(-1968.797 -68.143)" fill="#fff"/>
    <path id="Path_27" data-name="Path 27" d="M2444.785,380.572c0-.037.007-.073.01-.11h.039c0,.037,0,.075.007.112l-.056,0" transform="translate(-2177.848 -338.921)" fill="#fff"/>
    <g id="Group_1442" data-name="Group 1442">
      <path id="Path_28" data-name="Path 28" d="M684.393,71.268c-2.392,0-4.785.027-7.177-.008a31.393,31.393,0,0,1-6.944-.593A12.822,12.822,0,0,1,660.1,60.319a26.07,26.07,0,0,1-.516-5.66q-.047-8.239,0-16.478a23.8,23.8,0,0,1,.783-6.726,12.8,12.8,0,0,1,10.1-9.324,25.977,25.977,0,0,1,5.659-.521q8.258-.047,16.516,0a24.253,24.253,0,0,1,6.506.724A12.788,12.788,0,0,1,708.7,32.566a31.635,31.635,0,0,1,.528,6.723q.043,7.119,0,14.239a30.772,30.772,0,0,1-.581,6.983c-1.333,5.592-4.838,8.985-10.434,10.225a32.261,32.261,0,0,1-6.572.524c-2.417.034-4.835.008-7.252.008m.015-45.338V26c-2,0-4-.03-6,.008a38.543,38.543,0,0,0-6.846.444,8.393,8.393,0,0,0-6.954,6.347,18.5,18.5,0,0,0-.549,4.851c-.043,5.113-.081,10.226-.06,15.339a32.039,32.039,0,0,0,.43,6.277,8.416,8.416,0,0,0,6.394,6.956,17.788,17.788,0,0,0,4.663.534q8.9.038,17.806-.006a22.165,22.165,0,0,0,3.885-.365,8.349,8.349,0,0,0,7.027-6.4,18.594,18.594,0,0,0,.538-4.853q.04-8.713,0-17.426a20.3,20.3,0,0,0-.437-4.449,8.413,8.413,0,0,0-4.168-5.788,11.485,11.485,0,0,0-5.33-1.313c-3.466-.106-6.933-.157-10.4-.231" transform="translate(-587.543 -19.229)" fill="#fff"/>
      <path id="Path_29" data-name="Path 29" d="M782.908,132.157a12.769,12.769,0,1,1-12.763,12.618,12.758,12.758,0,0,1,12.763-12.618m.013,4.444a8.317,8.317,0,1,0,8.3,8.314,8.336,8.336,0,0,0-8.3-8.314" transform="translate(-686.056 -117.728)" fill="#fff"/>
      <path id="Path_30" data-name="Path 30" d="M984.225,106.266a2.978,2.978,0,1,1,2.934-3.046,2.988,2.988,0,0,1-2.934,3.046" transform="translate(-874.056 -89.357)" fill="#fff"/>
    </g>
  </g>
</svg>
