<svg xmlns="http://www.w3.org/2000/svg" width="44.726" height="49.648" viewBox="0 0 44.726 49.648">
  <g id="Group_1276" data-name="Group 1276" transform="translate(2302.066 10519)">
    <path id="Path_348" data-name="Path 348" d="M324.327,2.229c-10.719-5.344-25.047-.793-30.107,10.594-4.677,10.52,1.155,22.02,9.517,25.644,8.294,3.6,7.674,8.681,7.49,9.889a10.006,10.006,0,0,1-.257,1.292,32.583,32.583,0,0,0,23.85-16.054A23.387,23.387,0,0,0,324.327,2.229M307.982,18.213,312.7,32.89l-.4.644-13.784-10.9Zm10.57-11.135-3.035,31.534L314.292,37.6l-4.1-27.082Zm13.276,15.459-.556.167-3.884-1.459-6.423,10.216L317.276,32.6,320.7,10.12Z" transform="translate(-2594.624 -10519)" fill="#fff"/>
  </g>
</svg>
