<svg id="Group_1278" data-name="Group 1278" xmlns="http://www.w3.org/2000/svg" width="337.283" height="49.648" viewBox="0 0 337.283 49.648">
  <path id="Path_313" data-name="Path 313" d="M324.327,2.229c-10.719-5.344-25.047-.793-30.107,10.594-4.677,10.52,1.155,22.02,9.517,25.644,8.294,3.6,7.674,8.681,7.49,9.889a10.006,10.006,0,0,1-.257,1.292,32.583,32.583,0,0,0,23.85-16.054A23.387,23.387,0,0,0,324.327,2.229M307.982,18.213,312.7,32.89l-.4.644-13.784-10.9Zm10.57-11.135-3.035,31.534L314.292,37.6l-4.1-27.082Zm13.276,15.459-.556.167-3.884-1.459-6.423,10.216L317.276,32.6,320.7,10.12Z" fill="#fff"/>
  <path id="Path_314" data-name="Path 314" d="M7.57,26.523a4.416,4.416,0,0,0,4.711,4.63,4.416,4.416,0,0,0,4.711-4.63,4.49,4.49,0,0,0-4.711-4.672A4.491,4.491,0,0,0,7.57,26.523m9.181,8.013H16.67a7.252,7.252,0,0,1-6.242,2.979C4.307,37.515,0,32.4,0,26.483S4.228,15.489,10.348,15.489a8.429,8.429,0,0,1,6.4,2.7V3.408H24.08V36.832H16.751Z" fill="#fff"/>
  <path id="Path_315" data-name="Path 315" d="M32.669,26.523a4.417,4.417,0,0,0,4.711,4.631,4.416,4.416,0,0,0,4.711-4.631,4.488,4.488,0,0,0-4.711-4.67,4.489,4.489,0,0,0-4.711,4.67m16.51,10.309H41.85v-2.3h-.081a7.253,7.253,0,0,1-6.241,2.981c-6.122,0-10.43-5.114-10.43-11.034s4.229-10.994,10.349-10.994a8.427,8.427,0,0,1,6.4,2.7V16.175h7.329Z" fill="#fff"/>
  <path id="Path_316" data-name="Path 316" d="M58.78,18.831h.081a7.144,7.144,0,0,1,6.6-3.342c5.557,0,7.772,3.5,7.772,8.578V36.831H65.908V26.764c0-1.972.321-5.436-3.3-5.436-2.979,0-3.825,2.214-3.825,4.792V36.831H51.451V16.174H58.78Z" fill="#fff"/>
  <path id="Path_317" data-name="Path 317" d="M94.7,26.523a4.712,4.712,0,0,0,9.423,0,4.712,4.712,0,0,0-9.423,0m.242-8.013h.081a7.334,7.334,0,0,1,6.242-3.02c6.161,0,10.428,5.154,10.428,11.073,0,5.961-4.228,10.953-10.348,10.953a8.452,8.452,0,0,1-6.4-2.657V47.141H87.612V16.174h7.329Z" fill="#fff"/>
  <path id="Path_318" data-name="Path 318" d="M128.8,23.5a4.4,4.4,0,0,0-8.5,0Zm6.8,4.228H120.183c0,2.981,1.57,4.591,4.591,4.591a3.663,3.663,0,0,0,3.5-1.892h7.047a8.431,8.431,0,0,1-3.906,5.356,12.642,12.642,0,0,1-6.6,1.73c-6.846,0-11.961-3.865-11.961-10.993,0-6.885,4.711-11.033,11.436-11.033,7.169,0,11.316,4.429,11.316,11.476Z" fill="#fff"/>
  <path id="Path_319" data-name="Path 319" d="M144.357,26.523a4.712,4.712,0,0,0,9.422,0,4.711,4.711,0,0,0-9.422,0m16.51,10.309h-7.329v-2.3h-.081a7.253,7.253,0,0,1-6.241,2.981c-6.12,0-10.43-5.114-10.43-11.034s4.229-10.994,10.349-10.994a8.427,8.427,0,0,1,6.4,2.7V16.175h7.329Z" fill="#fff"/>
  <path id="Path_320" data-name="Path 320" d="M170.468,19.556h.081a7.177,7.177,0,0,1,6.684-3.665h1.41v7.048a5.94,5.94,0,0,0-3.1-.684c-4.068,0-5.074,2.7-5.074,6.24v8.336h-7.329V16.174h7.329Z" fill="#fff"/>
  <rect id="Rectangle_546" data-name="Rectangle 546" width="7.329" height="33.423" transform="translate(180.472 3.408)" fill="#fff"/>
  <path id="Path_321" data-name="Path 321" d="M197.361,18.751h.081a7.644,7.644,0,0,1,6.524-3.263,7.559,7.559,0,0,1,7.046,3.948,7.891,7.891,0,0,1,7.008-3.948c5.234,0,7.046,3.423,7.046,8.175V36.832h-7.328V26.966c0-2.135.08-5.637-3.021-5.637-3.383,0-3.5,3.18-3.5,5.637v9.866h-7.329V26.966c0-2.3,0-5.8-3.263-5.8s-3.261,3.5-3.261,5.8v9.866h-7.329V16.174h7.329Z" fill="#fff"/>
  <path id="Path_322" data-name="Path 322" d="M233.27,26.523a4.712,4.712,0,0,0,9.422,0,4.711,4.711,0,0,0-9.422,0m16.51,10.309h-7.329v-2.3h-.081a7.253,7.253,0,0,1-6.241,2.981c-6.12,0-10.429-5.114-10.429-11.034s4.228-10.994,10.348-10.994a8.427,8.427,0,0,1,6.4,2.7V16.175h7.329Z" fill="#fff"/>
  <path id="Path_323" data-name="Path 323" d="M259.382,18.831h.08a7.144,7.144,0,0,1,6.6-3.342c5.557,0,7.772,3.5,7.772,8.578V36.831h-7.328V26.764c0-1.972.321-5.436-3.3-5.436-2.979,0-3.824,2.214-3.824,4.792V36.831h-7.33V16.174h7.33Z" fill="#fff"/>
</svg>
