<svg xmlns="http://www.w3.org/2000/svg" xmlns:xlink="http://www.w3.org/1999/xlink" width="116" height="50.475" viewBox="0 0 116 50.475">
  <defs>
    <clipPath id="clip-path">
      <rect id="Rectangle_508" data-name="Rectangle 508" width="17.915" height="31.864" fill="#fff"/>
    </clipPath>
    <filter id="SKIP_DOWN" x="0" y="0" width="116" height="37" filterUnits="userSpaceOnUse">
      <feOffset dy="3" input="SourceAlpha"/>
      <feGaussianBlur stdDeviation="3" result="blur"/>
      <feFlood flood-opacity="0.161"/>
      <feComposite operator="in" in2="blur"/>
      <feComposite in="SourceGraphic"/>
    </filter>
  </defs>
  <g id="Group_1118" data-name="Group 1118" transform="translate(-885 -923)">
    <g id="Group_1056" data-name="Group 1056" transform="translate(958.932 955.56) rotate(90)" clip-path="url(#clip-path)">
      <path id="Path_304" data-name="Path 304" d="M1.471,31.124a.766.766,0,0,0,.548-.218L16.81,16.136a.85.85,0,0,0,.016-1.114L2.018.234A.733.733,0,0,0,1.471,0,.8.8,0,0,0,.907.235L0,1.172,14.355,15.528v.085L0,29.968l.9.933a.842.842,0,0,0,.568.223" transform="translate(0.52 0.37)" fill="#fff" fill-rule="evenodd"/>
      <path id="Path_305" data-name="Path 305" d="M1.991.74a.431.431,0,0,0-.3.126l-.65.671,14.1,14.1a.429.429,0,0,1,0,.608l-14.1,14.1.65.671a.463.463,0,0,0,.3.11.4.4,0,0,0,.286-.11l14.791-14.77a.476.476,0,0,0,0-.608L2.277.866A.377.377,0,0,0,1.991.74m0-.74a1.119,1.119,0,0,1,.822.355L17.59,15.112l.018.018.017.019a1.221,1.221,0,0,1,0,1.582l-.017.019-.018.017L2.8,31.537a1.13,1.13,0,0,1-.809.327A1.194,1.194,0,0,1,1.2,31.57l-.023-.02-.021-.021-.651-.672L0,30.334l.515-.515L14.395,15.94.515,2.06,0,1.545l.507-.523L1.158.351A1.183,1.183,0,0,1,1.991,0" transform="translate(-0.001 0)" fill="#fff"/>
    </g>
    <g transform="matrix(1, 0, 0, 1, 885, 923)" filter="url(#SKIP_DOWN)">
      <text id="SKIP_DOWN-2" data-name="SKIP DOWN" transform="translate(58 21)" fill="#fff" font-size="14" font-family="SegoeUI, Segoe UI" letter-spacing="0.2em"><tspan x="-48.47" y="0">SKIP DOWN</tspan></text>
    </g>
  </g>
</svg>
