<?xml version="1.0" encoding="UTF-8"?><svg xmlns="http://www.w3.org/2000/svg" viewBox="0 0 62.88 68.85"><defs><style>.e{fill:none;}.f{fill:#231f20;}</style></defs><g id="a"/><g id="b"><g id="c"><path id="d" class="f" d="M14.87,19.81h7.2v-3.68c0-4.13,.44-7.21,1.31-9.23,1-2.16,2.72-3.91,4.85-4.97C31.01,.56,34.08-.1,37.17,.01c3.68,0,7.34,.56,10.85,1.67l-1.75,9.05c-1.95-.48-3.95-.73-5.96-.74-1.47-.14-2.93,.34-4.04,1.32-.82,.88-1.23,2.56-1.23,5.05v3.45h9.7v10.21h-9.7v38.83h-12.97V30.02h-7.2v-10.21Z"/><rect class="e" y="0" width="62.88" height="68.84"/></g></g></svg>