<?xml version="1.0" encoding="utf-8"?>
<!-- Generator: Adobe Illustrator 26.1.0, SVG Export Plug-In . SVG Version: 6.00 Build 0)  -->
<svg version="1.1" id="Layer_1" xmlns="http://www.w3.org/2000/svg" xmlns:xlink="http://www.w3.org/1999/xlink" x="0px" y="0px"
	 viewBox="0 0 62.9 68.8" style="enable-background:new 0 0 62.9 68.8;" xml:space="preserve">
<style type="text/css">
	.st0{fill:#231F20;}
	.st1{fill:none;}
</style>
<g id="d" transform="translate(-91.117 -2.982)">
	<path id="e" class="st0" d="M122.4,68.8c-3,0-6.1,0-9.1,0c-2.9,0.1-5.9-0.2-8.8-0.8c-7-1.7-11.3-6.1-12.9-13.1
		c-0.5-2.3-0.7-4.7-0.7-7.1c0-7,0-13.9,0-20.9c-0.1-2.9,0.3-5.7,1-8.5c1.9-6.4,6.3-10.3,12.8-11.8c2.4-0.5,4.8-0.7,7.2-0.7
		c7,0,13.9,0,20.9,0c2.8-0.1,5.5,0.2,8.2,0.9c6.6,1.9,10.6,6.3,12.1,12.9c0.5,2.8,0.8,5.7,0.7,8.5c0,6,0,12,0,18
		c0.1,3-0.1,5.9-0.7,8.8c-1.7,7.1-6.1,11.4-13.2,12.9c-2.7,0.5-5.5,0.7-8.3,0.7C128.5,68.9,125.4,68.8,122.4,68.8 M122.4,11.5
		L122.4,11.5c-2.5,0.1-5.1,0.1-7.6,0.1c-2.9-0.1-5.8,0.1-8.7,0.6c-4.3,0.6-7.8,3.8-8.8,8c-0.5,2-0.7,4.1-0.7,6.1
		c0,6.5-0.1,12.9-0.1,19.4c-0.1,2.7,0.1,5.3,0.5,7.9c0.6,4.3,3.8,7.8,8.1,8.8c1.9,0.5,3.9,0.7,5.9,0.7c7.5,0,15,0,22.5,0
		c1.6,0,3.3-0.2,4.9-0.5c4.4-0.6,7.9-3.8,8.9-8.1c0.5-2,0.7-4.1,0.7-6.1c0-7.3,0-14.7,0-22c0-1.9-0.2-3.8-0.6-5.6
		c-0.6-3.1-2.5-5.8-5.3-7.3c-2.1-1.1-4.4-1.7-6.7-1.7C131.2,11.6,126.8,11.6,122.4,11.5"/>
	<path id="f" class="st0" d="M122.4,21.2c8.9,0,16.2,7.2,16.2,16.1s-7.2,16.2-16.2,16.2s-16.2-7.2-16.2-16.2c0-0.1,0-0.1,0-0.2
		C106.3,28.4,113.5,21.2,122.4,21.2 M122.4,26.9c-5.8,0-10.5,4.7-10.6,10.5c0,5.8,4.7,10.5,10.5,10.5c5.8,0,10.5-4.7,10.6-10.5v0
		C132.9,31.6,128.2,26.9,122.4,26.9"/>
	<path id="g" class="st0" d="M139.2,24.4c-2.1,0-3.8-1.6-3.8-3.7s1.6-3.8,3.7-3.8c2.1,0,3.8,1.6,3.8,3.7
		C143,22.6,141.3,24.3,139.2,24.4L139.2,24.4"/>
</g>
<rect x="-0.1" y="0" class="st1" width="62.9" height="68.8"/>
</svg>
