<svg xmlns="http://www.w3.org/2000/svg" width="51.762" height="49.422" viewBox="0 0 51.762 49.422">
  <g id="Group_1444" data-name="Group 1444" transform="translate(12201.725 4833.422)">
    <path id="Path_460" data-name="Path 460" d="M1466.964,70.272h9.476v8.757h-9.476Zm0,13.615h9.476v35.808h-9.476Z" transform="translate(-13668.688 -4903.694)" fill="#231f20"/>
    <path id="Path_461" data-name="Path 461" d="M1638.026,199.561h-9.471V181.286c0-3.864-.2-6.356-.61-7.493a5.253,5.253,0,0,0-1.972-2.654,5.614,5.614,0,0,0-3.287-.939,7.578,7.578,0,0,0-4.419,1.354,6.714,6.714,0,0,0-2.682,3.558c-.483,1.48-.722,4.243-.722,8.234v16.215h-9.475V163.753h8.8v5.255a14.654,14.654,0,0,1,17.537-4.93,9.621,9.621,0,0,1,3.927,2.889,10.3,10.3,0,0,1,1.851,3.973,29.118,29.118,0,0,1,.524,6.374Z" transform="translate(-13787.988 -4983.561)" fill="#231f20"/>
  </g>
</svg>
