<?xml version="1.0" encoding="UTF-8"?><svg xmlns="http://www.w3.org/2000/svg" viewBox="0 0 62.88 68.84"><defs><style>.e{fill:none;}.f{fill:#231f20;}</style></defs><g id="a"/><g id="b"><g id="c"><path id="d" class="f" d="M2.24,52.99c4.29,.44,8.61-.25,12.55-2,1.81-.8,3.51-1.83,5.05-3.08-.98-.07-1.96-.23-2.92-.47-2.87-.79-5.35-2.62-6.96-5.13-.54-.85-.98-1.76-1.29-2.72,.14,0,.24,0,.33,.02,1.58,.26,3.2,.19,4.75-.19,.08-.02,.17-.05,.24-.1-3.51-.75-6.5-3.02-8.18-6.19-.94-1.76-1.43-3.73-1.4-5.72,.84,.45,1.72,.8,2.64,1.06,.89,.25,1.82,.38,2.75,.39-3.42-2.33-5.41-6.24-5.28-10.38,.04-1.99,.58-3.94,1.59-5.65,4.59,5.61,10.83,9.63,17.83,11.48,2.3,.62,4.66,.98,7.04,1.08-.03-.21-.06-.38-.09-.55-1.21-6.32,2.8-12.47,9.08-13.92,4.09-1.02,8.41,.22,11.33,3.26,.12,.14,.3,.21,.48,.16,2.45-.52,4.8-1.4,6.98-2.63,.09-.05,.19-.1,.35-.19-.05,.16-.08,.25-.11,.35-.9,2.48-2.59,4.6-4.81,6.02-.09,.05-.17,.12-.24,.21,2.3-.25,4.56-.84,6.68-1.76-.02,.11-.07,.21-.15,.29-1.5,2.15-3.34,4.04-5.45,5.6-.2,.13-.3,.36-.27,.59,.06,1.19,.03,2.39-.07,3.58-.15,2.06-.49,4.1-1.01,6.1-1.43,5.61-4.21,10.78-8.11,15.05-4.4,4.88-10.2,8.3-16.6,9.78-1.52,.36-3.07,.61-4.63,.78-1.86,.19-3.73,.24-5.6,.14-4.18-.19-8.28-1.17-12.1-2.88-1.43-.64-2.82-1.37-4.15-2.19-.09-.06-.18-.11-.26-.17m32.42,.42h.07s0-.1,0-.14h-.05s0,.09-.01,.14"/><rect class="e" width="62.88" height="68.84"/></g></g></svg>